<?xml version="1.0" encoding="UTF-8"?>
<svg version="1.1" xmlns="http://www.w3.org/2000/svg" width="500" height="500">
<path d="M0 0 C0.90045044 -0.00705963 1.80090088 -0.01411926 2.7286377 -0.02139282 C40.56271231 -0.2507174 40.56271231 -0.2507174 57.20703125 3.203125 C58.69759033 3.50911621 58.69759033 3.50911621 60.21826172 3.82128906 C82.220508 8.47437301 102.98300327 15.38050853 123.20703125 25.203125 C123.92810059 25.55068848 124.64916992 25.89825195 125.39208984 26.25634766 C183.08785103 54.41594201 228.273258 107.04791745 249.3125 167.4375 C256.90979679 190.17968485 262.28374061 213.92910166 262.41015625 237.99609375 C262.41721588 238.89654419 262.42427551 239.79699463 262.43154907 240.72473145 C262.66087365 278.55880606 262.66087365 278.55880606 259.20703125 295.203125 C258.90104004 296.69368408 258.90104004 296.69368408 258.58886719 298.21435547 C253.93578324 320.21660175 247.02964772 340.97909702 237.20703125 361.203125 C236.85946777 361.92419434 236.5119043 362.64526367 236.15380859 363.38818359 C207.99421424 421.08394478 155.3622388 466.26935175 94.97265625 487.30859375 C72.2304714 494.90589054 48.48105459 500.27983436 24.4140625 500.40625 C23.06338684 500.41683945 23.06338684 500.41683945 21.6854248 500.42764282 C-16.14864981 500.6569674 -16.14864981 500.6569674 -32.79296875 497.203125 C-34.28352783 496.89713379 -34.28352783 496.89713379 -35.80419922 496.58496094 C-57.8064455 491.93187699 -78.56894077 485.02574147 -98.79296875 475.203125 C-99.51403809 474.85556152 -100.23510742 474.50799805 -100.97802734 474.14990234 C-158.67378853 445.99030799 -203.8591955 393.35833255 -224.8984375 332.96875 C-232.49573429 310.22656515 -237.86967811 286.47714834 -237.99609375 262.41015625 C-238.00315338 261.50970581 -238.01021301 260.60925537 -238.01748657 259.68151855 C-238.24681115 221.84744394 -238.24681115 221.84744394 -234.79296875 205.203125 C-234.48697754 203.71256592 -234.48697754 203.71256592 -234.17480469 202.19189453 C-229.52172074 180.18964825 -222.61558522 159.42715298 -212.79296875 139.203125 C-212.44540527 138.48205566 -212.0978418 137.76098633 -211.73974609 137.01806641 C-183.58015174 79.32230522 -130.9481763 34.13689825 -70.55859375 13.09765625 C-47.8164089 5.50035946 -24.06699209 0.12641564 0 0 Z " fill="#FEFEFE" transform="translate(237.79296875,-0.203125)"/>
<path d="M0 0 C20.38662537 17.65792241 34.21993636 44.31674257 36.45556641 71.26074219 C37.75203259 93.77063622 35.34750542 114.30783667 24.45556641 134.26074219 C23.89869141 135.31519531 23.34181641 136.36964844 22.76806641 137.45605469 C10.01257018 160.54586498 -9.62769955 176.19926192 -33.54443359 186.26074219 C-34.54474609 186.68226563 -35.54505859 187.10378906 -36.57568359 187.53808594 C-39.20886444 188.564252 -41.83954304 189.4433519 -44.54443359 190.26074219 C-45.47900391 190.55851563 -46.41357422 190.85628906 -47.37646484 191.16308594 C-74.71384823 198.47777422 -105.23784751 192.79773902 -129.52880859 179.09667969 C-153.47749777 164.51651918 -170.21922426 143.55181625 -179.54443359 117.26074219 C-179.86154297 116.40222656 -180.17865234 115.54371094 -180.50537109 114.65917969 C-189.04054666 89.39167974 -185.5467784 59.09652505 -174.54443359 35.26074219 C-171.91834716 30.01349863 -168.86295983 25.09451487 -165.54443359 20.26074219 C-165.15916504 19.69661621 -164.77389648 19.13249023 -164.37695312 18.55126953 C-147.57363628 -5.60043661 -121.66071002 -21.00961147 -93.04443359 -27.05175781 C-58.82033796 -31.91419763 -26.14256086 -22.22957884 0 0 Z " fill="#010101" transform="translate(276.54443359375,166.7392578125)"/>
<path d="M0 0 C15.26707835 10.62057624 26.62823392 24.88844528 30.6171875 43.3671875 C30.94341657 45.67253956 31.07343791 47.92247982 31.16015625 50.25 C31.25490234 52.02697266 31.25490234 52.02697266 31.3515625 53.83984375 C32.03662519 71.87834503 26.19267267 88.35839344 14.53515625 102.125 C0.81489412 116.24447344 -17.5111159 123.21614649 -37.02734375 123.6875 C-54.09381453 123.71605198 -70.61083462 115.97829379 -82.83984375 104.25 C-95.92550632 89.80730576 -102.85070265 72.10952538 -102.1875 52.5625 C-101.24179791 37.43126657 -94.729179 23.56779479 -84.83984375 12.25 C-84.34226563 11.65832031 -83.8446875 11.06664062 -83.33203125 10.45703125 C-73.70647915 -0.11172822 -61.36120578 -5.26863782 -47.83984375 -8.75 C-47.16953125 -8.95109375 -46.49921875 -9.1521875 -45.80859375 -9.359375 C-30.5517519 -12.38652616 -13.00744452 -8.01559167 0 0 Z " fill="#FDFDFD" transform="translate(237.83984375,192.75)"/>
<path d="M0 0 C14.52 0 29.04 0 44 0 C44 72.93 44 145.86 44 221 C29.48 221 14.96 221 0 221 C0 148.07 0 75.14 0 0 Z " fill="#000000" transform="translate(348,139)"/>
</svg>
